<?xml version="1.0" encoding="UTF-8" standalone="no"?>
<svg width="16px" height="16px" viewBox="0 0 16 16" version="1.1" xmlns="http://www.w3.org/2000/svg" xmlns:xlink="http://www.w3.org/1999/xlink" xmlns:sketch="http://www.bohemiancoding.com/sketch/ns">
    <!-- Generator: Sketch 3.4.2 (15857) - http://www.bohemiancoding.com/sketch -->
    <title>Icon</title>
    <desc>Created with Sketch.</desc>
    <defs></defs>
    <g id="Page-1" stroke="none" stroke-width="1" fill="none" fill-rule="evenodd" sketch:type="MSPage">
        <g id="Follower-Suggestions" sketch:type="MSArtboardGroup" transform="translate(-396.000000, -260.000000)" fill="#112240">
            <g id="user-list" sketch:type="MSLayerGroup" transform="translate(40.000000, 40.000000)">
                <g id="user-item" transform="translate(0.000000, 182.000000)" sketch:type="MSShapeGroup">
                    <g id="button" transform="translate(342.000000, 31.000000)">
                        <g id="Follow-+-Icon" transform="translate(14.000000, 7.000000)">
                            <g id="Icon">
                                <path d="M7,2 C8.1,2 9,2.9 9,4 L9,5 C9,6.1 8.1,7 7,7 C5.9,7 5,6.1 5,5 L5,4 C5,2.9 5.9,2 7,2 L7,2 Z M7,0 C4.8,0 3,1.8 3,4 L3,5 C3,7.2 4.8,9 7,9 C9.2,9 11,7.2 11,5 L11,4 C11,1.8 9.2,0 7,0 L7,0 L7,0 Z" id="Shape"></path>
                                <path d="M14,10 L12,10 L12,12 L10,12 L10,14 L12,14 L12,16 L14,16 L14,14 L16,14 L16,12 L14,12 L14,10 Z" id="Shape"></path>
                                <path d="M8,16 L0,16 L0,15 C0,12.2 2.2,10 5,10 L8,10 L8,12 L5,12 C3.7,12 2.6,12.8 2.2,14 L8,14 L8,16 L8,16 Z" id="Shape"></path>
                            </g>
                        </g>
                    </g>
                </g>
            </g>
        </g>
    </g>
</svg>